<svg xmlns="http://www.w3.org/2000/svg" xmlns:xlink="http://www.w3.org/1999/xlink" width="720" zoomAndPan="magnify" viewBox="0 0 540 540.000001" height="720" preserveAspectRatio="xMidYMid meet" version="1.0"><defs><clipPath id="648f997991"><path d="M 144.992188 334 L 395 334 L 395 487 L 144.992188 487 Z M 144.992188 334 " clip-rule="nonzero"/></clipPath><clipPath id="42b1e6be5f"><path d="M 248 318 L 292 318 L 292 507.054688 L 248 507.054688 Z M 248 318 " clip-rule="nonzero"/></clipPath><clipPath id="372c09234e"><path d="M 201 31.683594 L 339 31.683594 L 339 136 L 201 136 Z M 201 31.683594 " clip-rule="nonzero"/></clipPath></defs><path fill="#ffd900" d="M 217.742188 430.117188 L 322.246094 430.117188 L 322.246094 453.832031 L 217.742188 453.832031 Z M 217.742188 430.117188 " fill-opacity="1" fill-rule="nonzero"/><path fill="#231f20" d="M 324.148438 455.738281 L 215.839844 455.738281 L 215.839844 428.210938 L 324.148438 428.210938 Z M 219.648438 451.929688 L 320.339844 451.929688 L 320.339844 432.019531 L 219.648438 432.019531 Z M 219.648438 451.929688 " fill-opacity="1" fill-rule="nonzero"/><path fill="#ffd900" d="M 269.996094 397.785156 C 326.441406 397.785156 374.011719 432.628906 388.53125 480.144531 C 391.5 470.433594 393.089844 460.199219 393.089844 449.617188 C 393.089844 387.273438 337.980469 336.730469 269.996094 336.730469 C 202.007812 336.730469 146.898438 387.273438 146.898438 449.617188 C 146.898438 460.199219 148.488281 470.433594 151.457031 480.144531 C 165.976562 432.628906 213.546875 397.785156 269.996094 397.785156 Z M 269.996094 397.785156 " fill-opacity="1" fill-rule="nonzero"/><g clip-path="url(#648f997991)"><path fill="#231f20" d="M 388.53125 486.660156 L 386.710938 480.699219 C 372.136719 433.003906 324.136719 399.6875 269.996094 399.6875 C 215.851562 399.6875 167.851562 433.003906 153.277344 480.699219 L 151.457031 486.660156 L 149.636719 480.699219 C 146.554688 470.621094 144.992188 460.164062 144.992188 449.617188 C 144.992188 418.921875 158.015625 390.074219 181.664062 368.394531 C 205.265625 346.75 236.632812 334.828125 269.996094 334.828125 C 303.355469 334.828125 334.722656 346.75 358.320312 368.394531 C 381.96875 390.078125 394.992188 418.925781 394.992188 449.617188 C 394.992188 460.164062 393.429688 470.621094 390.347656 480.699219 L 388.527344 486.660156 Z M 269.996094 338.636719 C 203.167969 338.636719 148.800781 388.421875 148.800781 449.617188 C 148.800781 457.726562 149.757812 465.777344 151.652344 473.632812 C 159.5625 452.378906 174.390625 433.363281 193.90625 419.59375 C 215.886719 404.082031 242.199219 395.882812 269.996094 395.882812 C 297.789062 395.882812 324.101562 404.085938 346.085938 419.59375 C 365.601562 433.367188 380.421875 452.378906 388.335938 473.632812 C 390.230469 465.78125 391.1875 457.726562 391.1875 449.617188 C 391.1875 388.421875 336.820312 338.636719 269.996094 338.636719 Z M 269.996094 338.636719 " fill-opacity="1" fill-rule="nonzero"/></g><path fill="#ffd900" d="M 204.683594 133.347656 C 193.410156 162.40625 185.226562 197.542969 185.226562 238.351562 C 185.226562 307.125 195.625 402.984375 212.25 446.417969 C 229.523438 439.789062 249.164062 436.042969 269.996094 436.042969 C 290.824219 436.042969 310.464844 439.789062 327.738281 446.417969 C 344.363281 402.984375 354.761719 307.125 354.761719 238.351562 C 354.761719 197.542969 346.582031 162.40625 335.304688 133.347656 C 315.136719 131.953125 293.09375 131.183594 269.996094 131.183594 C 246.894531 131.183594 224.851562 131.953125 204.683594 133.347656 Z M 204.683594 133.347656 " fill-opacity="1" fill-rule="nonzero"/><path fill="#231f20" d="M 328.835938 448.882812 L 327.054688 448.199219 C 309.582031 441.496094 289.847656 437.949219 269.996094 437.949219 C 250.140625 437.949219 230.40625 441.492188 212.933594 448.199219 L 211.152344 448.882812 L 210.472656 447.101562 C 193.476562 402.707031 183.324219 306.101562 183.324219 238.355469 C 183.324219 201.710938 189.914062 166.148438 202.90625 132.664062 L 203.347656 131.535156 L 204.554688 131.453125 C 225.347656 130.015625 247.367188 129.285156 269.996094 129.285156 C 292.621094 129.285156 314.640625 130.011719 335.433594 131.453125 L 336.640625 131.535156 L 337.082031 132.664062 C 350.074219 166.148438 356.664062 201.710938 356.664062 238.355469 C 356.664062 306.101562 346.511719 402.707031 329.515625 447.101562 Z M 206.023438 135.164062 C 193.488281 167.882812 187.132812 202.589844 187.132812 238.351562 C 187.132812 304.859375 196.929688 399.214844 213.363281 443.964844 C 230.816406 437.53125 250.351562 434.136719 269.992188 434.136719 C 289.628906 434.136719 309.164062 437.53125 326.617188 443.964844 C 343.050781 399.214844 352.847656 304.855469 352.847656 238.351562 C 352.847656 202.589844 346.496094 167.878906 333.957031 135.164062 C 313.605469 133.789062 292.09375 133.089844 269.988281 133.089844 C 247.882812 133.089844 226.371094 133.785156 206.015625 135.164062 Z M 206.023438 135.164062 " fill-opacity="1" fill-rule="nonzero"/><path fill="#ffd900" d="M 289.261719 412.820312 C 289.261719 462.488281 269.996094 502.75 269.996094 502.75 C 269.996094 502.75 250.726562 462.488281 250.726562 412.820312 C 250.726562 363.15625 269.996094 322.894531 269.996094 322.894531 C 269.996094 322.894531 289.261719 363.15625 289.261719 412.820312 Z M 289.261719 412.820312 " fill-opacity="1" fill-rule="nonzero"/><g clip-path="url(#42b1e6be5f)"><path fill="#231f20" d="M 269.996094 507.160156 L 268.277344 503.570312 C 268.078125 503.15625 263.335938 493.179688 258.535156 476.953125 C 254.105469 461.984375 248.820312 438.707031 248.820312 412.824219 C 248.820312 386.941406 254.105469 363.667969 258.535156 348.699219 C 263.339844 332.464844 268.078125 322.496094 268.277344 322.078125 L 269.996094 318.492188 L 271.710938 322.078125 C 271.910156 322.496094 276.648438 332.46875 281.453125 348.699219 C 285.882812 363.667969 291.167969 386.941406 291.167969 412.824219 C 291.167969 438.707031 285.882812 461.984375 281.453125 476.953125 C 276.648438 493.183594 271.910156 503.15625 271.710938 503.570312 Z M 269.996094 327.648438 C 265.300781 338.902344 252.628906 372.992188 252.628906 412.820312 C 252.628906 452.648438 265.304688 486.742188 269.996094 497.996094 C 274.6875 486.738281 287.359375 452.648438 287.359375 412.820312 C 287.359375 372.992188 274.683594 338.902344 269.996094 327.648438 Z M 269.996094 327.648438 " fill-opacity="1" fill-rule="nonzero"/></g><path fill="#ffd900" d="M 269.996094 34.339844 C 269.996094 34.339844 229.710938 68.855469 204.683594 133.347656 C 224.851562 131.953125 246.894531 131.183594 269.996094 131.183594 C 293.09375 131.183594 315.136719 131.953125 335.304688 133.347656 C 310.277344 68.859375 269.996094 34.339844 269.996094 34.339844 Z M 269.996094 34.339844 " fill-opacity="1" fill-rule="nonzero"/><g clip-path="url(#372c09234e)"><path fill="#231f20" d="M 338.160156 135.453125 L 335.171875 135.25 C 314.464844 133.816406 292.535156 133.09375 269.996094 133.09375 C 247.453125 133.09375 225.523438 133.820312 204.816406 135.25 L 201.828125 135.453125 L 202.910156 132.660156 C 215.925781 99.125 233.109375 73.8125 245.234375 58.480469 C 258.394531 41.835938 268.335938 33.253906 268.757812 32.898438 L 269.996094 31.835938 L 271.230469 32.898438 C 271.648438 33.253906 281.59375 41.835938 294.757812 58.480469 C 306.882812 73.8125 324.066406 99.125 337.082031 132.660156 L 338.164062 135.453125 Z M 269.996094 36.90625 C 266.921875 39.730469 258.453125 47.890625 248.144531 60.9375 C 236.542969 75.621094 220.238281 99.589844 207.558594 131.25 C 227.464844 129.945312 248.453125 129.285156 269.996094 129.285156 C 291.535156 129.285156 312.523438 129.941406 332.425781 131.25 C 319.746094 99.589844 303.441406 75.621094 291.839844 60.9375 C 281.53125 47.890625 273.0625 39.730469 269.992188 36.90625 Z M 269.996094 36.90625 " fill-opacity="1" fill-rule="nonzero"/></g><path fill="#ffd900" d="M 323.09375 214.5625 C 323.09375 216.304688 323.007812 218.039062 322.839844 219.769531 C 322.667969 221.5 322.414062 223.21875 322.074219 224.921875 C 321.734375 226.628906 321.3125 228.3125 320.808594 229.980469 C 320.304688 231.644531 319.71875 233.277344 319.054688 234.886719 C 318.386719 236.492188 317.644531 238.0625 316.824219 239.597656 C 316.003906 241.128906 315.113281 242.621094 314.144531 244.066406 C 313.179688 245.511719 312.144531 246.90625 311.042969 248.25 C 309.9375 249.59375 308.773438 250.882812 307.542969 252.113281 C 306.3125 253.34375 305.023438 254.507812 303.679688 255.613281 C 302.335938 256.714844 300.941406 257.75 299.496094 258.714844 C 298.050781 259.683594 296.558594 260.574219 295.027344 261.394531 C 293.492188 262.214844 291.921875 262.957031 290.316406 263.621094 C 288.707031 264.289062 287.074219 264.875 285.410156 265.378906 C 283.746094 265.882812 282.058594 266.304688 280.355469 266.644531 C 278.648438 266.984375 276.929688 267.238281 275.199219 267.410156 C 273.46875 267.578125 271.734375 267.664062 269.996094 267.664062 C 268.253906 267.664062 266.519531 267.578125 264.789062 267.410156 C 263.058594 267.238281 261.339844 266.984375 259.636719 266.644531 C 257.929688 266.304688 256.246094 265.882812 254.578125 265.378906 C 252.914062 264.875 251.28125 264.289062 249.671875 263.621094 C 248.066406 262.957031 246.496094 262.214844 244.960938 261.394531 C 243.429688 260.574219 241.9375 259.683594 240.492188 258.714844 C 239.046875 257.75 237.652344 256.714844 236.308594 255.613281 C 234.964844 254.507812 233.675781 253.34375 232.445312 252.113281 C 231.214844 250.882812 230.050781 249.59375 228.945312 248.25 C 227.84375 246.90625 226.808594 245.511719 225.84375 244.066406 C 224.875 242.621094 223.984375 241.128906 223.164062 239.597656 C 222.34375 238.0625 221.601562 236.492188 220.9375 234.886719 C 220.269531 233.277344 219.683594 231.644531 219.179688 229.980469 C 218.675781 228.3125 218.253906 226.628906 217.914062 224.921875 C 217.574219 223.21875 217.320312 221.5 217.148438 219.769531 C 216.980469 218.039062 216.894531 216.304688 216.894531 214.5625 C 216.894531 212.824219 216.980469 211.089844 217.148438 209.359375 C 217.320312 207.628906 217.574219 205.910156 217.914062 204.203125 C 218.253906 202.5 218.675781 200.8125 219.179688 199.148438 C 219.683594 197.484375 220.269531 195.851562 220.9375 194.242188 C 221.601562 192.636719 222.34375 191.066406 223.164062 189.53125 C 223.984375 188 224.875 186.507812 225.84375 185.0625 C 226.808594 183.617188 227.84375 182.222656 228.945312 180.878906 C 230.050781 179.535156 231.214844 178.246094 232.445312 177.015625 C 233.675781 175.785156 234.964844 174.621094 236.308594 173.515625 C 237.652344 172.414062 239.046875 171.378906 240.492188 170.414062 C 241.9375 169.445312 243.429688 168.554688 244.960938 167.734375 C 246.496094 166.914062 248.066406 166.171875 249.671875 165.503906 C 251.28125 164.839844 252.914062 164.253906 254.578125 163.75 C 256.246094 163.246094 257.929688 162.824219 259.636719 162.484375 C 261.339844 162.144531 263.058594 161.890625 264.789062 161.71875 C 266.519531 161.550781 268.253906 161.464844 269.996094 161.464844 C 271.734375 161.464844 273.46875 161.550781 275.199219 161.71875 C 276.929688 161.890625 278.648438 162.144531 280.355469 162.484375 C 282.058594 162.824219 283.746094 163.246094 285.410156 163.75 C 287.074219 164.253906 288.707031 164.839844 290.316406 165.503906 C 291.921875 166.171875 293.492188 166.914062 295.027344 167.734375 C 296.558594 168.554688 298.050781 169.445312 299.496094 170.414062 C 300.941406 171.378906 302.335938 172.414062 303.679688 173.515625 C 305.023438 174.621094 306.3125 175.785156 307.542969 177.015625 C 308.773438 178.246094 309.9375 179.535156 311.042969 180.878906 C 312.144531 182.222656 313.179688 183.617188 314.144531 185.0625 C 315.113281 186.507812 316.003906 188 316.824219 189.53125 C 317.644531 191.066406 318.386719 192.636719 319.054688 194.242188 C 319.71875 195.851562 320.304688 197.484375 320.808594 199.148438 C 321.3125 200.8125 321.734375 202.5 322.074219 204.203125 C 322.414062 205.910156 322.667969 207.628906 322.839844 209.359375 C 323.007812 211.089844 323.09375 212.824219 323.09375 214.5625 Z M 323.09375 214.5625 " fill-opacity="1" fill-rule="nonzero"/><path fill="#231f20" d="M 269.996094 269.570312 C 239.664062 269.570312 214.988281 244.894531 214.988281 214.5625 C 214.988281 184.234375 239.664062 159.558594 269.996094 159.558594 C 300.324219 159.558594 325 184.234375 325 214.5625 C 325 244.894531 300.324219 269.570312 269.996094 269.570312 Z M 269.996094 163.367188 C 241.765625 163.367188 218.796875 186.335938 218.796875 214.5625 C 218.796875 242.792969 241.765625 265.761719 269.996094 265.761719 C 298.222656 265.761719 321.191406 242.792969 321.191406 214.5625 C 321.191406 186.335938 298.222656 163.367188 269.996094 163.367188 Z M 269.996094 163.367188 " fill-opacity="1" fill-rule="nonzero"/><path fill="#ffd900" d="M 308.570312 214.5625 C 308.570312 215.828125 308.507812 217.089844 308.382812 218.34375 C 308.257812 219.601562 308.074219 220.851562 307.828125 222.089844 C 307.582031 223.328125 307.273438 224.554688 306.90625 225.761719 C 306.539062 226.972656 306.117188 228.160156 305.632812 229.324219 C 305.148438 230.492188 304.609375 231.632812 304.015625 232.75 C 303.417969 233.863281 302.769531 234.945312 302.066406 235.996094 C 301.367188 237.046875 300.613281 238.058594 299.8125 239.035156 C 299.011719 240.011719 298.164062 240.945312 297.269531 241.839844 C 296.378906 242.734375 295.441406 243.582031 294.464844 244.382812 C 293.488281 245.183594 292.476562 245.9375 291.425781 246.636719 C 290.375 247.339844 289.292969 247.988281 288.179688 248.582031 C 287.0625 249.179688 285.921875 249.71875 284.757812 250.203125 C 283.589844 250.6875 282.402344 251.109375 281.191406 251.476562 C 279.984375 251.84375 278.757812 252.152344 277.519531 252.398438 C 276.28125 252.644531 275.03125 252.828125 273.773438 252.953125 C 272.519531 253.078125 271.257812 253.136719 269.996094 253.136719 C 268.730469 253.136719 267.46875 253.078125 266.214844 252.953125 C 264.957031 252.828125 263.707031 252.644531 262.46875 252.398438 C 261.230469 252.152344 260.003906 251.84375 258.796875 251.476562 C 257.585938 251.109375 256.398438 250.6875 255.234375 250.203125 C 254.066406 249.71875 252.925781 249.179688 251.808594 248.582031 C 250.695312 247.988281 249.613281 247.339844 248.5625 246.636719 C 247.511719 245.9375 246.5 245.183594 245.523438 244.382812 C 244.546875 243.582031 243.613281 242.734375 242.71875 241.839844 C 241.824219 240.945312 240.976562 240.011719 240.175781 239.035156 C 239.375 238.058594 238.621094 237.046875 237.921875 235.996094 C 237.21875 234.945312 236.570312 233.863281 235.976562 232.75 C 235.378906 231.632812 234.839844 230.492188 234.355469 229.324219 C 233.871094 228.160156 233.449219 226.972656 233.082031 225.761719 C 232.714844 224.554688 232.40625 223.328125 232.160156 222.089844 C 231.914062 220.851562 231.730469 219.601562 231.605469 218.34375 C 231.480469 217.089844 231.421875 215.828125 231.421875 214.5625 C 231.421875 213.300781 231.480469 212.039062 231.605469 210.785156 C 231.730469 209.527344 231.914062 208.277344 232.160156 207.039062 C 232.40625 205.800781 232.714844 204.574219 233.082031 203.367188 C 233.449219 202.15625 233.871094 200.96875 234.355469 199.800781 C 234.839844 198.636719 235.378906 197.496094 235.976562 196.378906 C 236.570312 195.265625 237.21875 194.183594 237.921875 193.132812 C 238.621094 192.082031 239.375 191.070312 240.175781 190.09375 C 240.976562 189.117188 241.824219 188.179688 242.71875 187.289062 C 243.613281 186.394531 244.546875 185.546875 245.523438 184.746094 C 246.5 183.945312 247.511719 183.191406 248.5625 182.492188 C 249.613281 181.789062 250.695312 181.140625 251.808594 180.542969 C 252.925781 179.949219 254.066406 179.410156 255.234375 178.925781 C 256.398438 178.441406 257.585938 178.019531 258.796875 177.652344 C 260.003906 177.285156 261.230469 176.976562 262.46875 176.730469 C 263.707031 176.484375 264.957031 176.300781 266.214844 176.175781 C 267.46875 176.050781 268.730469 175.988281 269.996094 175.988281 C 271.257812 175.988281 272.519531 176.050781 273.773438 176.175781 C 275.03125 176.300781 276.28125 176.484375 277.519531 176.730469 C 278.757812 176.976562 279.984375 177.285156 281.191406 177.652344 C 282.402344 178.019531 283.589844 178.441406 284.757812 178.925781 C 285.921875 179.410156 287.0625 179.949219 288.179688 180.542969 C 289.292969 181.140625 290.375 181.789062 291.425781 182.492188 C 292.476562 183.191406 293.488281 183.945312 294.464844 184.746094 C 295.441406 185.546875 296.378906 186.394531 297.269531 187.289062 C 298.164062 188.179688 299.011719 189.117188 299.8125 190.09375 C 300.613281 191.070312 301.367188 192.082031 302.066406 193.132812 C 302.769531 194.183594 303.417969 195.265625 304.015625 196.378906 C 304.609375 197.496094 305.148438 198.636719 305.632812 199.800781 C 306.117188 200.96875 306.539062 202.15625 306.90625 203.367188 C 307.273438 204.574219 307.582031 205.800781 307.828125 207.039062 C 308.074219 208.277344 308.257812 209.527344 308.382812 210.785156 C 308.507812 212.039062 308.570312 213.300781 308.570312 214.5625 Z M 308.570312 214.5625 " fill-opacity="1" fill-rule="nonzero"/><path fill="#231f20" d="M 269.996094 255.046875 C 247.671875 255.046875 229.515625 236.886719 229.515625 214.566406 C 229.515625 192.25 247.675781 174.089844 269.996094 174.089844 C 292.3125 174.089844 310.472656 192.25 310.472656 214.566406 C 310.472656 236.886719 292.3125 255.046875 269.996094 255.046875 Z M 269.996094 177.894531 C 249.773438 177.894531 233.324219 194.34375 233.324219 214.5625 C 233.324219 234.785156 249.773438 251.234375 269.996094 251.234375 C 290.214844 251.234375 306.664062 234.785156 306.664062 214.5625 C 306.664062 194.34375 290.214844 177.894531 269.996094 177.894531 Z M 269.996094 177.894531 " fill-opacity="1" fill-rule="nonzero"/></svg>