<svg xmlns="http://www.w3.org/2000/svg" xmlns:xlink="http://www.w3.org/1999/xlink" width="794" zoomAndPan="magnify" viewBox="0 0 595.5 842.249979" height="1123" preserveAspectRatio="xMidYMid meet" version="1.0"><defs><clipPath id="e4c1cf06bf"><path d="M 4 1 L 357.824219 1 L 357.824219 500.957031 L 4 500.957031 Z M 4 1 " clip-rule="nonzero"/></clipPath><clipPath id="b0a53cf8c4"><rect x="0" width="359" y="0" height="502"/></clipPath></defs><g transform="matrix(1, 0, 0, 1, 118, 170)"><g clip-path="url(#b0a53cf8c4)"><g clip-path="url(#e4c1cf06bf)"><path fill="#000000" d="M 342.96875 307.703125 C 340.84375 305.910156 338.511719 304.453125 335.972656 303.332031 C 336.015625 303.15625 336.046875 302.980469 336.058594 302.800781 C 338.628906 259.136719 329.996094 226.976562 310.410156 207.21875 C 304.828125 201.554688 298.433594 197.035156 291.230469 193.664062 L 288.632812 151.203125 C 288.632812 151.179688 288.632812 151.15625 288.632812 151.132812 C 288.617188 150.988281 288.597656 150.847656 288.566406 150.707031 C 288.566406 150.664062 288.566406 150.625 288.566406 150.589844 C 288.570312 150.578125 288.570312 150.570312 288.566406 150.558594 C 288.523438 150.402344 288.464844 150.253906 288.394531 150.105469 L 288.308594 149.953125 C 288.253906 149.851562 288.191406 149.757812 288.125 149.664062 C 288.085938 149.605469 288.042969 149.550781 287.996094 149.5 C 287.929688 149.417969 287.859375 149.34375 287.78125 149.273438 C 287.738281 149.222656 287.6875 149.175781 287.636719 149.132812 C 287.539062 149.050781 287.441406 148.976562 287.335938 148.910156 L 287.199219 148.828125 C 287.066406 148.746094 286.921875 148.679688 286.773438 148.625 L 286.59375 148.566406 L 286.257812 148.484375 L 285.9375 148.484375 L 244.941406 145.726562 L 230.636719 63.179688 L 230.636719 63.109375 C 230.636719 63.027344 230.59375 62.949219 230.570312 62.875 C 230.542969 62.769531 230.511719 62.671875 230.46875 62.574219 C 230.441406 62.5 230.410156 62.4375 230.375 62.367188 C 230.324219 62.261719 230.265625 62.164062 230.199219 62.066406 C 230.183594 62.03125 230.167969 61.996094 230.144531 61.964844 L 230.082031 61.894531 C 230.007812 61.800781 229.929688 61.707031 229.847656 61.625 C 229.792969 61.578125 229.75 61.523438 229.699219 61.476562 C 229.605469 61.398438 229.511719 61.328125 229.410156 61.265625 L 229.257812 61.152344 C 228.945312 60.964844 228.609375 60.839844 228.25 60.78125 C 228.1875 60.777344 228.121094 60.777344 228.058594 60.78125 C 227.957031 60.765625 227.851562 60.753906 227.746094 60.75 L 189.890625 60.75 L 180.648438 42 C 180.097656 40.894531 179.332031 39.960938 178.351562 39.207031 C 177.371094 38.453125 176.273438 37.953125 175.0625 37.703125 L 175.0625 11.054688 C 175.0625 10.394531 174.996094 9.738281 174.867188 9.09375 C 174.738281 8.445312 174.550781 7.816406 174.296875 7.207031 C 174.042969 6.597656 173.734375 6.019531 173.367188 5.472656 C 173 4.921875 172.585938 4.414062 172.117188 3.949219 C 171.652344 3.480469 171.144531 3.066406 170.597656 2.699219 C 170.046875 2.332031 169.46875 2.023438 168.859375 1.769531 C 168.25 1.519531 167.621094 1.328125 166.972656 1.199219 C 166.328125 1.070312 165.671875 1.003906 165.011719 1.003906 C 164.351562 1.003906 163.699219 1.070312 163.050781 1.199219 C 162.40625 1.328125 161.777344 1.519531 161.167969 1.769531 C 160.558594 2.023438 159.976562 2.332031 159.429688 2.699219 C 158.882812 3.066406 158.375 3.480469 157.90625 3.949219 C 157.441406 4.414062 157.023438 4.921875 156.65625 5.472656 C 156.289062 6.019531 155.980469 6.597656 155.730469 7.207031 C 155.476562 7.816406 155.285156 8.445312 155.15625 9.09375 C 155.027344 9.738281 154.964844 10.394531 154.964844 11.054688 L 154.964844 37.769531 C 154.1875 37.894531 153.449219 38.128906 152.742188 38.476562 C 152.035156 38.820312 151.394531 39.261719 150.816406 39.792969 C 150.242188 40.328125 149.753906 40.933594 149.355469 41.613281 C 148.957031 42.289062 148.667969 43.007812 148.480469 43.773438 L 144.355469 60.734375 L 137.925781 60.734375 C 137.292969 60.734375 136.722656 60.914062 136.210938 61.28125 L 92.445312 92.515625 C 92.351562 92.589844 92.261719 92.667969 92.175781 92.753906 C 92.117188 92.796875 92.0625 92.851562 92.011719 92.90625 C 91.945312 92.976562 91.894531 93.058594 91.835938 93.136719 C 91.773438 93.207031 91.71875 93.28125 91.667969 93.359375 C 91.621094 93.441406 91.578125 93.523438 91.546875 93.613281 C 91.5 93.695312 91.457031 93.777344 91.421875 93.867188 C 91.421875 93.953125 91.375 94.042969 91.351562 94.136719 C 91.328125 94.230469 91.292969 94.320312 91.273438 94.414062 C 91.257812 94.507812 91.273438 94.5625 91.273438 94.632812 C 91.273438 94.703125 91.273438 94.875 91.273438 94.996094 L 91.273438 95.027344 L 94.632812 168.398438 C 94.386719 168.582031 94.121094 168.789062 93.839844 168.988281 C 92.660156 169.894531 90.9375 171.238281 88.734375 172.984375 C 85.03125 175.929688 79.894531 179.992188 73.492188 185.125 C 62.570312 193.863281 51.5625 202.738281 51.449219 202.804688 C 51.320312 202.90625 51.203125 203.019531 51.09375 203.144531 L 51.023438 203.234375 C 50.9375 203.335938 50.859375 203.445312 50.789062 203.558594 L 50.707031 203.710938 C 50.648438 203.816406 50.601562 203.921875 50.558594 204.035156 C 50.535156 204.089844 50.515625 204.144531 50.5 204.199219 C 50.449219 204.351562 50.410156 204.507812 50.386719 204.664062 C 50.386719 204.679688 50.386719 204.695312 50.386719 204.707031 C 50.375 204.882812 50.375 205.0625 50.386719 205.238281 L 50.386719 205.296875 C 50.386719 205.445312 50.777344 210.960938 51.390625 219.835938 C 44.78125 222.191406 25.847656 230.65625 14.050781 252.730469 C 1.015625 277.128906 1.179688 309.539062 14.542969 349.058594 C 14.710938 349.558594 14.996094 349.980469 15.394531 350.324219 C 12.671875 355.1875 11.519531 361.453125 12 368.976562 C 12.515625 375.714844 13.949219 382.253906 16.296875 388.589844 C 16.5625 389.40625 17.085938 389.992188 17.867188 390.351562 C 18.210938 390.484375 18.566406 390.550781 18.933594 390.550781 C 19.390625 390.550781 19.824219 390.449219 20.234375 390.246094 L 34.066406 383.425781 C 34.433594 383.25 34.746094 383.011719 35.011719 382.707031 C 35.277344 382.402344 35.472656 382.054688 35.59375 381.671875 C 35.71875 381.285156 35.757812 380.890625 35.722656 380.488281 C 35.683594 380.085938 35.566406 379.710938 35.371094 379.355469 C 35.3125 379.242188 29.542969 368.21875 35.140625 365.164062 C 35.648438 364.859375 36.199219 364.671875 36.789062 364.605469 C 37.378906 364.535156 37.957031 364.59375 38.523438 364.773438 C 41.988281 365.859375 45.09375 370.792969 45.996094 372.59375 C 46.171875 372.953125 46.414062 373.261719 46.714844 373.519531 C 47.015625 373.78125 47.355469 373.96875 47.734375 374.09375 C 48.113281 374.214844 48.5 374.257812 48.894531 374.222656 C 49.292969 374.1875 49.664062 374.078125 50.015625 373.890625 C 56.035156 370.699219 62.894531 367.191406 64.386719 366.609375 C 64.511719 366.582031 64.632812 366.550781 64.75 366.507812 C 65.074219 366.609375 65.402344 366.664062 65.742188 366.660156 L 102.578125 366.660156 L 102.578125 440.644531 L 68.871094 459.871094 L 68.769531 459.941406 L 68.59375 460.058594 C 68.507812 460.128906 68.417969 460.199219 68.339844 460.269531 L 68.199219 460.40625 C 68.117188 460.492188 68.042969 460.585938 67.96875 460.683594 C 67.933594 460.730469 67.898438 460.769531 67.871094 460.816406 C 67.777344 460.964844 67.691406 461.113281 67.621094 461.273438 L 67.621094 461.359375 C 67.566406 461.496094 67.523438 461.636719 67.492188 461.777344 C 67.492188 461.835938 67.492188 461.898438 67.464844 461.960938 C 67.4375 462.085938 67.425781 462.207031 67.425781 462.332031 C 67.425781 462.367188 67.425781 462.398438 67.425781 462.433594 L 67.425781 495.386719 C 67.425781 495.769531 67.5 496.136719 67.640625 496.488281 C 67.78125 496.84375 67.984375 497.15625 68.25 497.429688 C 68.511719 497.707031 68.816406 497.921875 69.164062 498.078125 C 69.511719 498.234375 69.875 498.320312 70.257812 498.335938 L 128.230469 500.609375 L 128.351562 500.609375 C 128.53125 500.609375 128.703125 500.59375 128.878906 500.558594 L 129.066406 500.507812 C 129.175781 500.484375 129.28125 500.453125 129.382812 500.414062 L 129.585938 500.328125 C 129.679688 500.285156 129.773438 500.234375 129.863281 500.179688 L 130.042969 500.0625 L 130.136719 500.003906 L 163.015625 474.828125 C 163.386719 474.546875 163.675781 474.203125 163.882812 473.789062 C 164.089844 473.371094 164.195312 472.933594 164.195312 472.46875 L 164.195312 442.160156 C 164.195312 442.125 164.195312 442.09375 164.195312 442.066406 C 164.191406 441.925781 164.175781 441.785156 164.144531 441.648438 C 164.136719 441.578125 164.121094 441.511719 164.105469 441.445312 L 164.070312 441.28125 C 164.070312 441.230469 164.023438 441.183594 164.003906 441.128906 C 163.988281 441.074219 163.957031 441 163.929688 440.933594 C 163.878906 440.828125 163.820312 440.722656 163.757812 440.621094 L 163.675781 440.480469 C 163.574219 440.339844 163.464844 440.207031 163.34375 440.078125 L 163.296875 440.042969 C 163.1875 439.9375 163.070312 439.839844 162.945312 439.75 C 162.894531 439.714844 162.84375 439.683594 162.789062 439.65625 C 162.695312 439.59375 162.59375 439.539062 162.492188 439.492188 L 162.308594 439.414062 L 161.972656 439.308594 L 161.792969 439.265625 C 161.617188 439.230469 161.433594 439.214844 161.253906 439.214844 L 144.089844 439.214844 L 144.089844 366.683594 L 207.152344 366.683594 L 207.152344 437.25 L 173.445312 456.480469 L 173.347656 456.546875 L 173.171875 456.667969 C 173.082031 456.734375 172.996094 456.804688 172.917969 456.882812 L 172.773438 457.015625 C 172.691406 457.101562 172.613281 457.195312 172.546875 457.292969 C 172.546875 457.335938 172.472656 457.375 172.445312 457.421875 C 172.351562 457.570312 172.269531 457.722656 172.199219 457.882812 L 172.167969 457.972656 C 172.117188 458.109375 172.074219 458.25 172.039062 458.390625 C 172.039062 458.449219 172.039062 458.507812 172.007812 458.566406 C 171.988281 458.691406 171.976562 458.8125 171.972656 458.9375 C 171.96875 458.972656 171.96875 459.003906 171.972656 459.039062 L 171.972656 492 C 171.972656 492.378906 172.042969 492.746094 172.1875 493.101562 C 172.328125 493.453125 172.53125 493.769531 172.792969 494.042969 C 173.058594 494.316406 173.363281 494.53125 173.710938 494.6875 C 174.058594 494.84375 174.421875 494.929688 174.800781 494.945312 L 232.738281 497.222656 L 232.863281 497.222656 C 233.039062 497.21875 233.214844 497.203125 233.386719 497.175781 L 233.578125 497.128906 C 233.683594 497.101562 233.792969 497.066406 233.894531 497.027344 C 233.964844 497.003906 234.03125 496.972656 234.09375 496.9375 C 234.191406 496.898438 234.28125 496.851562 234.371094 496.796875 L 234.554688 496.679688 L 234.648438 496.621094 L 267.566406 471.402344 C 267.9375 471.125 268.226562 470.777344 268.433594 470.363281 C 268.640625 469.949219 268.746094 469.507812 268.746094 469.046875 L 268.746094 438.746094 C 268.746094 438.746094 268.746094 438.6875 268.746094 438.652344 C 268.742188 438.511719 268.726562 438.375 268.703125 438.234375 C 268.703125 438.171875 268.675781 438.105469 268.65625 438.035156 C 268.640625 437.964844 268.65625 437.929688 268.621094 437.871094 C 268.605469 437.820312 268.582031 437.769531 268.558594 437.722656 C 268.535156 437.65625 268.507812 437.585938 268.480469 437.523438 C 268.429688 437.414062 268.375 437.3125 268.308594 437.214844 L 268.226562 437.066406 C 268.125 436.925781 268.015625 436.792969 267.898438 436.667969 L 267.851562 436.632812 C 267.738281 436.523438 267.621094 436.425781 267.496094 436.335938 L 267.347656 436.25 C 267.25 436.1875 267.148438 436.132812 267.042969 436.085938 L 266.859375 436 C 266.746094 435.960938 266.636719 435.929688 266.523438 435.902344 L 266.347656 435.855469 C 266.167969 435.820312 265.988281 435.804688 265.804688 435.800781 L 248.636719 435.800781 L 248.5 334.941406 C 263.339844 318.441406 281.816406 298.363281 295.804688 283.339844 C 296.378906 282.726562 296.640625 281.996094 296.589844 281.15625 L 296.117188 273.429688 C 300.222656 282.902344 302.90625 293.65625 304.167969 305.695312 C 304.199219 305.972656 304.269531 306.238281 304.378906 306.496094 C 302.871094 307.734375 301.535156 309.140625 300.371094 310.710938 C 291.3125 322.921875 294.707031 341.761719 294.855469 342.535156 C 294.917969 342.871094 295.039062 343.1875 295.210938 343.484375 C 295.386719 343.78125 295.605469 344.039062 295.871094 344.261719 C 296.136719 344.480469 296.429688 344.648438 296.753906 344.765625 C 297.078125 344.878906 297.410156 344.9375 297.753906 344.9375 L 318.71875 344.9375 C 319.121094 344.9375 319.503906 344.859375 319.871094 344.703125 C 320.242188 344.546875 320.5625 344.324219 320.84375 344.039062 C 321.121094 343.75 321.332031 343.417969 321.472656 343.046875 C 321.617188 342.671875 321.679688 342.285156 321.667969 341.886719 C 321.601562 340.046875 321.914062 334.269531 324.164062 331.945312 C 324.738281 331.316406 325.449219 331.015625 326.300781 331.046875 C 330.867188 331.046875 333.460938 339.546875 334.015625 342.515625 C 334.074219 342.855469 334.191406 343.175781 334.367188 343.472656 C 334.539062 343.769531 334.757812 344.03125 335.023438 344.25 C 335.289062 344.472656 335.582031 344.640625 335.90625 344.761719 C 336.230469 344.878906 336.5625 344.9375 336.910156 344.9375 L 337.078125 344.9375 L 354.996094 343.949219 C 355.8125 343.902344 356.488281 343.574219 357.03125 342.964844 C 357.570312 342.355469 357.820312 341.648438 357.773438 340.835938 C 357.730469 339.953125 356.386719 319.050781 342.96875 307.703125 Z M 330.589844 286.171875 C 321.785156 284.820312 312.484375 288.261719 307.675781 290.464844 C 306.886719 286.929688 305.964844 283.566406 304.941406 280.390625 C 307.828125 277.777344 318.660156 268.804688 329.777344 269.929688 C 330.273438 275.097656 330.542969 280.511719 330.589844 286.171875 Z M 330.589844 290.355469 C 330.554688 293.953125 330.433594 297.648438 330.226562 301.441406 C 326.308594 300.644531 322.363281 300.488281 318.394531 300.972656 C 315.417969 301.277344 312.554688 302.023438 309.808594 303.207031 C 309.460938 300.261719 309.035156 297.398438 308.53125 294.65625 C 312.667969 292.652344 322.191406 288.792969 330.589844 290.367188 Z M 299.5 205.503906 C 301.917969 207.3125 304.1875 209.289062 306.308594 211.4375 C 309.191406 214.371094 311.785156 217.542969 314.085938 220.949219 C 308.386719 224.828125 294.5625 235.234375 287.636719 249.082031 C 284.179688 245.097656 280.363281 241.492188 276.191406 238.265625 C 281.359375 223.429688 294.589844 210.085938 299.5 205.503906 Z M 296.023438 203.085938 C 290.566406 208.242188 278.246094 220.992188 272.710938 235.730469 C 268.085938 232.554688 263.183594 229.886719 258.007812 227.726562 C 260.476562 213.0625 274.125 199.632812 278.765625 195.449219 C 284.914062 197.097656 290.664062 199.644531 296.023438 203.082031 Z M 254.085938 226.207031 C 250.5 224.898438 246.832031 223.890625 243.078125 223.183594 C 240.957031 215.519531 241.492188 209.164062 244.6875 204.246094 C 250.449219 195.359375 263.230469 193.539062 264.382812 193.398438 C 267.589844 193.390625 270.765625 193.699219 273.910156 194.316406 C 267.863281 200.164062 256.761719 212.449219 254.085938 226.199219 Z M 240.957031 157.515625 L 208.882812 177.097656 L 194.488281 91.171875 L 225.621094 68.84375 Z M 160.859375 11.054688 C 160.859375 10.78125 160.882812 10.511719 160.9375 10.242188 C 160.992188 9.976562 161.070312 9.714844 161.175781 9.464844 C 161.277344 9.210938 161.40625 8.972656 161.558594 8.746094 C 161.710938 8.519531 161.882812 8.308594 162.074219 8.117188 C 162.269531 7.921875 162.476562 7.75 162.703125 7.597656 C 162.929688 7.445312 163.171875 7.320312 163.421875 7.214844 C 163.675781 7.109375 163.933594 7.03125 164.203125 6.976562 C 164.46875 6.925781 164.738281 6.898438 165.011719 6.898438 C 165.285156 6.898438 165.554688 6.925781 165.824219 6.976562 C 166.089844 7.03125 166.351562 7.109375 166.601562 7.214844 C 166.855469 7.320312 167.09375 7.445312 167.320312 7.597656 C 167.546875 7.75 167.757812 7.921875 167.949219 8.117188 C 168.144531 8.308594 168.316406 8.519531 168.46875 8.746094 C 168.621094 8.972656 168.746094 9.210938 168.851562 9.464844 C 168.957031 9.714844 169.035156 9.976562 169.089844 10.242188 C 169.140625 10.511719 169.167969 10.78125 169.167969 11.054688 L 169.167969 37.371094 L 160.859375 37.371094 Z M 154.191406 45.167969 C 154.304688 44.699219 154.554688 44.316406 154.929688 44.015625 C 155.308594 43.714844 155.742188 43.558594 156.226562 43.554688 L 173.464844 43.4375 C 173.867188 43.4375 174.238281 43.546875 174.578125 43.757812 C 174.917969 43.96875 175.179688 44.257812 175.355469 44.617188 L 188.683594 71.625 C 173.011719 80.070312 153.839844 76.726562 146.90625 75.089844 Z M 138.867188 66.628906 L 142.90625 66.628906 L 140.5 76.492188 C 140.410156 76.855469 140.394531 77.222656 140.445312 77.59375 C 140.496094 77.960938 140.613281 78.308594 140.796875 78.636719 C 140.980469 78.960938 141.214844 79.242188 141.503906 79.476562 C 141.796875 79.710938 142.117188 79.886719 142.472656 80 C 149.621094 82.0625 156.910156 83.089844 164.347656 83.082031 C 173.613281 83.082031 184.472656 81.347656 194.117188 75.273438 C 194.425781 75.078125 194.6875 74.835938 194.90625 74.542969 C 195.125 74.253906 195.28125 73.929688 195.382812 73.582031 C 195.480469 73.230469 195.515625 72.875 195.480469 72.511719 C 195.449219 72.148438 195.351562 71.804688 195.191406 71.476562 L 192.796875 66.628906 L 218.558594 66.628906 L 190.269531 86.921875 L 104.097656 91.460938 Z M 188.789062 92.90625 L 203.195312 178.949219 L 100.96875 178.949219 L 100.550781 169.800781 L 97.257812 97.742188 Z M 94.90625 175.640625 L 95.195312 182.019531 C 95.210938 182.398438 95.296875 182.757812 95.457031 183.105469 C 95.613281 183.449219 95.828125 183.753906 96.101562 184.015625 C 96.378906 184.277344 96.691406 184.476562 97.042969 184.617188 C 97.394531 184.757812 97.761719 184.828125 98.140625 184.828125 L 206.730469 184.828125 C 206.835938 184.839844 206.941406 184.839844 207.046875 184.828125 C 207.09375 184.832031 207.136719 184.832031 207.183594 184.828125 L 207.40625 184.78125 L 207.550781 184.742188 L 207.777344 184.664062 L 207.890625 184.617188 C 208.003906 184.566406 208.113281 184.507812 208.222656 184.445312 L 245.730469 161.542969 C 246.246094 161.230469 246.628906 160.800781 246.878906 160.25 C 247.128906 159.699219 247.203125 159.128906 247.101562 158.535156 L 245.925781 151.714844 L 277.421875 153.832031 L 205.761719 206.191406 L 61.363281 202.445312 C 73.523438 192.648438 87.898438 181.132812 94.90625 175.640625 Z M 51.730469 226.128906 C 52.109375 231.539062 52.546875 237.769531 53.023438 244.515625 C 49.527344 239.730469 45.398438 235.566406 40.644531 232.027344 C 44.144531 229.695312 47.839844 227.730469 51.730469 226.128906 Z M 37.113281 234.5625 C 40.570312 237.011719 43.695312 239.824219 46.488281 243.007812 C 49.28125 246.1875 51.667969 249.648438 53.648438 253.390625 C 53.824219 255.863281 54.003906 258.375 54.191406 260.929688 C 52.417969 263.566406 50.792969 266.296875 49.316406 269.109375 C 46.433594 264.261719 42.925781 259.925781 38.792969 256.09375 C 34.65625 252.261719 30.0625 249.09375 25.007812 246.589844 C 28.515625 242.039062 32.550781 238.019531 37.113281 234.535156 Z M 19.101562 255.703125 C 20.152344 253.738281 21.300781 251.828125 22.546875 249.980469 C 27.542969 252.335938 39.636719 259.304688 47.082031 273.554688 C 45.464844 276.964844 44.027344 280.449219 42.765625 284.007812 C 34.515625 275.273438 19.980469 270.625 13.714844 268.945312 C 15.066406 264.347656 16.863281 259.933594 19.101562 255.703125 Z M 12.621094 272.929688 C 18.949219 274.636719 34.367188 279.582031 41.269531 288.597656 C 40.183594 292.199219 39.300781 295.851562 38.628906 299.554688 C 28.871094 293.152344 16.050781 292.371094 10.203125 292.382812 C 10.320312 285.808594 11.136719 279.324219 12.648438 272.929688 Z M 10.1875 296.5 C 15.875 296.5 29.046875 297.339844 37.886719 304.054688 C 37.382812 307.863281 37.128906 311.683594 37.128906 315.523438 C 27.160156 312.683594 16.957031 315.394531 12.183594 317.070312 C 11 310.269531 10.339844 303.417969 10.203125 296.519531 Z M 16.398438 335.554688 C 15.019531 330.644531 13.878906 325.863281 12.980469 321.207031 C 17.105469 319.710938 27.671875 316.640625 37.269531 319.902344 C 37.445312 323.3125 37.839844 326.695312 38.445312 330.050781 C 29.683594 329.460938 20.953125 333.210938 16.425781 335.574219 Z M 39.320312 334.253906 C 39.710938 335.914062 40.175781 337.585938 40.703125 339.261719 C 38.328125 338.808594 35.933594 338.707031 33.527344 338.953125 C 31.117188 339.199219 28.796875 339.78125 26.558594 340.707031 C 23.867188 341.746094 21.460938 343.242188 19.339844 345.199219 C 18.71875 343.316406 18.128906 341.453125 17.570312 339.609375 C 21.636719 337.460938 30.792969 333.238281 39.347656 334.273438 Z M 49.726562 367.367188 C 47.960938 364.609375 44.652344 360.542969 40.296875 359.164062 C 38.96875 358.742188 37.605469 358.601562 36.21875 358.746094 C 34.828125 358.890625 33.527344 359.308594 32.3125 359.996094 C 24.878906 364.042969 26.253906 373.121094 28.871094 379.410156 L 20.660156 383.480469 C 18.105469 375.195312 12.792969 352.515625 28.746094 346.210938 C 31.117188 345.246094 33.578125 344.753906 36.136719 344.730469 C 41.636719 344.730469 46.964844 347.25 52.050781 352.253906 C 55.027344 355.265625 57.582031 358.605469 59.710938 362.269531 C 57.625 363.273438 54.519531 364.871094 49.757812 367.386719 Z M 56.257812 348.15625 C 53.292969 345.117188 49.878906 342.714844 46.019531 340.949219 C 46.335938 340.5625 46.539062 340.121094 46.632812 339.632812 C 46.722656 339.140625 46.691406 338.660156 46.539062 338.183594 C 37.414062 310.019531 48.15625 283.699219 54.898438 271.148438 C 55.222656 275.617188 55.550781 280.140625 55.882812 284.65625 C 57.574219 307.679688 58.992188 326.03125 60.101562 339.191406 C 60.621094 345.308594 61.074219 350.34375 61.449219 354.226562 C 59.886719 352.074219 58.167969 350.058594 56.289062 348.171875 Z M 125.394531 494.605469 L 73.269531 492.578125 L 73.269531 465.46875 L 126.035156 467.171875 Z M 158.246094 470.996094 L 131.359375 491.585938 L 131.949219 465.898438 L 158.253906 447.753906 Z M 151.734375 445.066406 L 128.160156 461.324219 L 80.824219 459.796875 L 103.355469 446.945312 C 103.785156 448.0625 104.371094 449.089844 105.113281 450.027344 C 105.855469 450.964844 106.71875 451.773438 107.703125 452.449219 C 108.691406 453.128906 109.753906 453.644531 110.894531 454 C 112.035156 454.355469 113.207031 454.535156 114.402344 454.535156 L 132.207031 454.535156 C 132.886719 454.535156 133.558594 454.476562 134.222656 454.363281 C 134.890625 454.246094 135.542969 454.074219 136.183594 453.847656 C 136.820312 453.621094 137.433594 453.339844 138.023438 453.007812 C 138.613281 452.675781 139.171875 452.292969 139.699219 451.867188 C 140.222656 451.4375 140.707031 450.96875 141.152344 450.457031 C 141.597656 449.945312 141.992188 449.398438 142.34375 448.820312 C 142.695312 448.242188 142.996094 447.636719 143.242188 447.007812 C 143.488281 446.375 143.683594 445.730469 143.820312 445.066406 Z M 138.179688 379.398438 L 138.179688 390.996094 L 108.472656 390.996094 L 108.472656 379.4375 Z M 108.453125 375.269531 L 108.453125 366.683594 L 138.179688 366.683594 L 138.179688 375.3125 Z M 138.179688 395.121094 L 138.179688 406.757812 L 108.472656 406.757812 L 108.472656 395.160156 Z M 138.179688 410.84375 L 138.179688 422.433594 L 108.472656 422.433594 L 108.472656 410.882812 Z M 138.179688 426.5625 L 138.179688 438.160156 L 108.472656 438.160156 L 108.472656 426.601562 Z M 138.179688 442.285156 L 138.179688 442.683594 C 138.175781 443.074219 138.140625 443.464844 138.0625 443.847656 C 137.984375 444.230469 137.871094 444.601562 137.722656 444.964844 C 137.574219 445.324219 137.390625 445.667969 137.171875 445.992188 C 136.953125 446.320312 136.707031 446.621094 136.429688 446.894531 C 136.15625 447.171875 135.851562 447.417969 135.527344 447.636719 C 135.203125 447.855469 134.859375 448.039062 134.5 448.1875 C 134.136719 448.335938 133.765625 448.449219 133.382812 448.527344 C 132.996094 448.605469 132.609375 448.640625 132.21875 448.644531 L 114.429688 448.644531 C 114.039062 448.640625 113.652344 448.601562 113.269531 448.527344 C 112.886719 448.449219 112.515625 448.335938 112.152344 448.1875 C 111.792969 448.035156 111.449219 447.851562 111.125 447.636719 C 110.796875 447.417969 110.496094 447.171875 110.222656 446.894531 C 109.945312 446.617188 109.699219 446.316406 109.480469 445.992188 C 109.261719 445.667969 109.078125 445.324219 108.929688 444.960938 C 108.78125 444.601562 108.664062 444.230469 108.589844 443.847656 C 108.511719 443.460938 108.472656 443.074219 108.472656 442.683594 L 108.472656 442.285156 Z M 68.117188 360.792969 C 66.347656 347.824219 61.179688 277.300781 57.34375 221.878906 C 57.34375 221.851562 57.34375 221.820312 57.34375 221.785156 C 57.023438 217.140625 56.710938 212.605469 56.410156 208.230469 L 204 212.054688 L 217.113281 360.792969 Z M 242.640625 361.25 L 242.640625 371.898438 L 213.023438 371.898438 L 213.023438 366.683594 L 220.59375 366.683594 L 220.835938 366.644531 L 220.988281 366.644531 C 221.167969 366.605469 221.34375 366.546875 221.511719 366.472656 L 221.542969 366.472656 C 221.699219 366.402344 221.847656 366.316406 221.988281 366.21875 L 222.113281 366.125 C 222.226562 366.035156 222.335938 365.941406 222.4375 365.84375 C 222.460938 365.820312 222.484375 365.796875 222.507812 365.777344 L 222.507812 365.742188 C 222.628906 365.605469 222.738281 365.460938 222.832031 365.304688 L 222.878906 365.21875 C 222.953125 365.082031 223.015625 364.941406 223.066406 364.796875 C 223.085938 364.753906 223.101562 364.707031 223.113281 364.65625 C 223.113281 364.605469 223.15625 364.550781 223.167969 364.5 C 223.882812 363.382812 224.667969 362.316406 225.527344 361.304688 Z M 228.9375 357.125 C 232.375 353.070312 237.105469 347.695312 242.613281 341.507812 L 242.613281 357.125 Z M 213.023438 434.792969 L 213.023438 423.195312 L 242.722656 423.195312 L 242.722656 434.792969 Z M 242.746094 438.917969 L 242.746094 439.320312 C 242.746094 439.710938 242.707031 440.097656 242.632812 440.480469 C 242.554688 440.863281 242.441406 441.234375 242.292969 441.597656 C 242.144531 441.957031 241.960938 442.300781 241.742188 442.625 C 241.523438 442.949219 241.277344 443.25 241.003906 443.527344 C 240.726562 443.804688 240.425781 444.050781 240.101562 444.265625 C 239.777344 444.484375 239.433594 444.667969 239.070312 444.816406 C 238.710938 444.96875 238.339844 445.078125 237.957031 445.15625 C 237.574219 445.234375 237.183594 445.269531 236.792969 445.273438 L 218.984375 445.273438 C 218.59375 445.269531 218.207031 445.234375 217.820312 445.15625 C 217.4375 445.078125 217.066406 444.96875 216.707031 444.816406 C 216.34375 444.667969 216 444.484375 215.675781 444.265625 C 215.351562 444.050781 215.050781 443.804688 214.773438 443.527344 C 214.496094 443.25 214.25 442.949219 214.03125 442.625 C 213.816406 442.300781 213.632812 441.957031 213.480469 441.597656 C 213.332031 441.234375 213.21875 440.863281 213.140625 440.480469 C 213.0625 440.097656 213.023438 439.710938 213.023438 439.320312 L 213.023438 438.917969 Z M 213.023438 419.070312 L 213.023438 407.472656 L 242.707031 407.472656 L 242.707031 419.070312 Z M 213.023438 403.347656 L 213.023438 391.730469 L 242.683594 391.730469 L 242.683594 403.328125 Z M 213.023438 387.625 L 213.023438 376.027344 L 242.660156 376.027344 L 242.660156 387.625 Z M 229.976562 491.210938 L 177.832031 489.164062 L 177.832031 462.054688 L 230.601562 463.757812 Z M 262.828125 467.601562 L 235.941406 488.226562 L 236.53125 462.535156 L 262.832031 444.386719 Z M 256.316406 441.671875 L 232.738281 457.929688 L 185.40625 456.402344 L 207.9375 443.59375 C 208.367188 444.707031 208.953125 445.734375 209.695312 446.671875 C 210.4375 447.609375 211.300781 448.417969 212.285156 449.09375 C 213.273438 449.769531 214.335938 450.285156 215.476562 450.640625 C 216.617188 450.996094 217.789062 451.175781 218.984375 451.175781 L 236.792969 451.175781 C 237.472656 451.175781 238.144531 451.117188 238.8125 451 C 239.476562 450.886719 240.128906 450.714844 240.769531 450.484375 C 241.40625 450.257812 242.019531 449.976562 242.609375 449.644531 C 243.199219 449.3125 243.757812 448.933594 244.28125 448.503906 C 244.804688 448.078125 245.289062 447.605469 245.734375 447.097656 C 246.179688 446.585938 246.574219 446.039062 246.925781 445.460938 C 247.277344 444.882812 247.578125 444.277344 247.824219 443.648438 C 248.070312 443.015625 248.261719 442.371094 248.398438 441.707031 Z M 254.699219 319.300781 C 236.777344 338.996094 227.429688 349.640625 222.574219 355.59375 L 209.769531 210.558594 L 283.078125 156.929688 L 285.175781 191.175781 C 273.648438 187.117188 264.632812 187.480469 264.011719 187.511719 L 263.847656 187.511719 C 263.175781 187.582031 247.34375 189.371094 239.765625 200.996094 C 235.296875 207.835938 234.703125 216.488281 237.996094 226.707031 C 238.175781 227.257812 238.488281 227.71875 238.9375 228.085938 C 239.386719 228.453125 239.902344 228.671875 240.476562 228.734375 C 240.621094 228.734375 254.816406 230.449219 269.675781 240.75 C 277.59375 246.21875 284.191406 252.980469 289.460938 261.03125 L 290.640625 280.222656 C 286.773438 284.402344 270.632812 301.792969 254.699219 319.300781 Z M 290.523438 252.609375 C 296.578125 239.054688 310.640625 228.34375 316.308594 224.4375 C 319.855469 230.453125 322.644531 236.796875 324.671875 243.480469 C 311.386719 245.449219 301.269531 256.25 296.789062 261.917969 C 294.910156 258.675781 292.820312 255.570312 290.523438 252.609375 Z M 303.488281 276.179688 C 302.183594 272.667969 300.675781 269.238281 298.964844 265.902344 C 302.371094 261.355469 312.632812 249.179688 325.839844 247.5 C 327.429688 253.507812 328.589844 259.597656 329.324219 265.769531 C 318.136719 265.023438 307.84375 272.472656 303.484375 276.175781 Z M 339.195312 338.9375 C 337.886719 334.34375 334.273438 325.183594 326.300781 325.183594 C 325.09375 325.171875 323.9375 325.398438 322.828125 325.867188 C 321.71875 326.335938 320.75 327.007812 319.921875 327.882812 C 316.976562 330.917969 316.109375 335.855469 315.863281 339.082031 L 300.324219 339.082031 C 299.789062 334.007812 299.289062 322.0625 305.117188 314.214844 C 308.3125 309.914062 312.867188 307.5 319.039062 306.816406 C 327.09375 305.929688 333.863281 307.738281 339.140625 312.199219 C 347.90625 319.589844 350.71875 332.480469 351.5625 338.25 Z M 339.195312 338.9375 " fill-opacity="1" fill-rule="nonzero"/></g><path fill="#000000" d="M 107.128906 167.550781 C 107.136719 167.9375 107.21875 168.304688 107.371094 168.660156 C 107.523438 169.011719 107.738281 169.324219 108.011719 169.59375 C 108.289062 169.867188 108.605469 170.074219 108.960938 170.21875 C 109.320312 170.363281 109.691406 170.4375 110.074219 170.4375 L 110.132812 170.4375 L 182.507812 168.921875 C 182.898438 168.914062 183.269531 168.832031 183.628906 168.675781 C 183.988281 168.519531 184.300781 168.296875 184.570312 168.015625 C 184.84375 167.734375 185.046875 167.410156 185.191406 167.046875 C 185.332031 166.683594 185.398438 166.304688 185.390625 165.914062 C 185.382812 165.523438 185.300781 165.148438 185.144531 164.792969 C 184.984375 164.433594 184.765625 164.121094 184.484375 163.847656 C 184.203125 163.578125 183.878906 163.371094 183.515625 163.230469 C 183.152344 163.089844 182.773438 163.023438 182.382812 163.03125 L 110.011719 164.542969 C 109.621094 164.554688 109.246094 164.636719 108.890625 164.792969 C 108.53125 164.949219 108.21875 165.167969 107.949219 165.449219 C 107.679688 165.734375 107.472656 166.054688 107.328125 166.417969 C 107.1875 166.78125 107.121094 167.160156 107.128906 167.550781 Z M 107.128906 167.550781 " fill-opacity="1" fill-rule="nonzero"/><path fill="#000000" d="M 115.378906 154.332031 C 122.128906 154.332031 127.421875 146.421875 127.421875 136.328125 C 127.421875 126.230469 122.117188 118.324219 115.378906 118.324219 C 108.644531 118.324219 103.328125 126.230469 103.328125 136.328125 C 103.328125 146.421875 108.632812 154.332031 115.378906 154.332031 Z M 115.378906 124.214844 C 118.28125 124.214844 121.527344 129.398438 121.527344 136.328125 C 121.527344 143.257812 118.28125 148.4375 115.378906 148.4375 C 112.480469 148.4375 109.222656 143.257812 109.222656 136.328125 C 109.222656 129.398438 112.476562 124.214844 115.378906 124.214844 Z M 115.378906 124.214844 " fill-opacity="1" fill-rule="nonzero"/><path fill="#000000" d="M 117.648438 319.492188 L 97.953125 319.492188 C 97.375 319.476562 96.804688 319.519531 96.234375 319.617188 C 95.667969 319.71875 95.117188 319.871094 94.578125 320.082031 C 94.042969 320.292969 93.53125 320.554688 93.046875 320.867188 C 92.5625 321.179688 92.113281 321.535156 91.699219 321.9375 C 91.289062 322.339844 90.917969 322.777344 90.59375 323.253906 C 90.269531 323.730469 89.996094 324.234375 89.769531 324.765625 C 89.546875 325.296875 89.378906 325.84375 89.261719 326.410156 C 89.148438 326.976562 89.09375 327.546875 89.09375 328.121094 C 89.09375 328.699219 89.148438 329.269531 89.261719 329.832031 C 89.378906 330.398438 89.546875 330.945312 89.769531 331.476562 C 89.996094 332.007812 90.269531 332.511719 90.59375 332.988281 C 90.917969 333.464844 91.289062 333.902344 91.699219 334.304688 C 92.113281 334.707031 92.5625 335.066406 93.046875 335.378906 C 93.53125 335.691406 94.042969 335.953125 94.578125 336.160156 C 95.117188 336.371094 95.667969 336.527344 96.234375 336.625 C 96.804688 336.726562 97.375 336.769531 97.953125 336.753906 L 117.648438 336.753906 C 118.226562 336.769531 118.796875 336.726562 119.367188 336.625 C 119.933594 336.527344 120.484375 336.371094 121.023438 336.160156 C 121.558594 335.953125 122.070312 335.691406 122.554688 335.378906 C 123.039062 335.066406 123.488281 334.707031 123.898438 334.304688 C 124.3125 333.902344 124.683594 333.464844 125.007812 332.988281 C 125.332031 332.511719 125.605469 332.007812 125.832031 331.476562 C 126.054688 330.945312 126.222656 330.398438 126.339844 329.832031 C 126.453125 329.269531 126.507812 328.699219 126.507812 328.121094 C 126.507812 327.546875 126.453125 326.976562 126.339844 326.410156 C 126.222656 325.84375 126.054688 325.296875 125.832031 324.765625 C 125.605469 324.234375 125.332031 323.730469 125.007812 323.253906 C 124.683594 322.777344 124.3125 322.339844 123.898438 321.9375 C 123.488281 321.535156 123.039062 321.179688 122.554688 320.867188 C 122.070312 320.554688 121.558594 320.292969 121.023438 320.082031 C 120.484375 319.871094 119.933594 319.71875 119.367188 319.617188 C 118.796875 319.519531 118.226562 319.476562 117.648438 319.492188 Z M 117.648438 330.859375 L 97.953125 330.859375 C 97.578125 330.875 97.214844 330.820312 96.863281 330.6875 C 96.515625 330.558594 96.203125 330.363281 95.933594 330.105469 C 95.660156 329.84375 95.453125 329.542969 95.304688 329.199219 C 95.15625 328.855469 95.085938 328.496094 95.085938 328.121094 C 95.085938 327.746094 95.15625 327.386719 95.304688 327.042969 C 95.453125 326.699219 95.660156 326.398438 95.933594 326.140625 C 96.203125 325.882812 96.515625 325.6875 96.863281 325.554688 C 97.214844 325.425781 97.578125 325.367188 97.953125 325.382812 L 117.648438 325.382812 C 118.023438 325.367188 118.386719 325.425781 118.738281 325.554688 C 119.085938 325.6875 119.398438 325.882812 119.667969 326.140625 C 119.941406 326.398438 120.148438 326.699219 120.296875 327.042969 C 120.445312 327.386719 120.515625 327.746094 120.515625 328.121094 C 120.515625 328.496094 120.445312 328.855469 120.296875 329.199219 C 120.148438 329.542969 119.941406 329.84375 119.667969 330.105469 C 119.398438 330.363281 119.085938 330.558594 118.738281 330.6875 C 118.386719 330.820312 118.023438 330.875 117.648438 330.859375 Z M 117.648438 330.859375 " fill-opacity="1" fill-rule="nonzero"/><path fill="#000000" d="M 163.769531 275.042969 L 154.976562 275.207031 L 152.160156 264.28125 C 152.054688 263.867188 151.839844 263.515625 151.515625 263.234375 C 151.191406 262.953125 150.816406 262.789062 150.390625 262.746094 C 149.957031 262.703125 149.550781 262.792969 149.171875 263.007812 C 148.792969 263.222656 148.511719 263.527344 148.328125 263.921875 L 141.460938 278.242188 L 140.457031 276.222656 C 140.285156 275.855469 140.023438 275.566406 139.679688 275.351562 C 139.332031 275.136719 138.957031 275.035156 138.550781 275.042969 L 131.160156 275.230469 C 130.714844 275.242188 130.316406 275.382812 129.964844 275.652344 C 129.613281 275.917969 129.371094 276.265625 129.242188 276.6875 L 127.214844 283.292969 L 119.695312 263.679688 C 119.542969 263.285156 119.292969 262.964844 118.945312 262.722656 C 118.597656 262.480469 118.210938 262.359375 117.785156 262.355469 C 117.363281 262.355469 116.976562 262.472656 116.628906 262.710938 C 116.277344 262.945312 116.027344 263.261719 115.871094 263.652344 L 111.441406 274.71875 L 97.0625 275.238281 C 96.789062 275.25 96.527344 275.308594 96.277344 275.421875 C 96.027344 275.539062 95.8125 275.695312 95.625 275.894531 C 95.4375 276.09375 95.296875 276.324219 95.203125 276.578125 C 95.105469 276.835938 95.0625 277.101562 95.074219 277.375 C 95.082031 277.648438 95.144531 277.910156 95.257812 278.160156 C 95.371094 278.40625 95.527344 278.625 95.730469 278.8125 C 95.929688 279 96.15625 279.140625 96.414062 279.234375 C 96.671875 279.332031 96.9375 279.375 97.210938 279.363281 L 112.933594 278.773438 C 113.34375 278.761719 113.714844 278.636719 114.046875 278.402344 C 114.382812 278.164062 114.625 277.859375 114.773438 277.476562 L 117.71875 270.050781 L 125.507812 290.367188 C 125.65625 290.765625 125.910156 291.085938 126.261719 291.328125 C 126.613281 291.570312 127 291.691406 127.425781 291.691406 L 127.492188 291.691406 C 127.933594 291.675781 128.328125 291.535156 128.675781 291.265625 C 129.023438 291 129.265625 290.65625 129.394531 290.238281 L 132.75 279.339844 L 137.324219 279.222656 L 139.585938 283.894531 C 139.757812 284.253906 140.007812 284.539062 140.34375 284.753906 C 140.679688 284.964844 141.046875 285.074219 141.441406 285.074219 C 141.839844 285.070312 142.207031 284.964844 142.542969 284.753906 C 142.875 284.539062 143.128906 284.253906 143.300781 283.894531 L 149.566406 270.816406 L 151.375 277.835938 C 151.429688 278.0625 151.523438 278.269531 151.652344 278.464844 C 151.78125 278.660156 151.9375 278.824219 152.121094 278.964844 C 152.304688 279.105469 152.507812 279.214844 152.730469 279.285156 C 152.949219 279.359375 153.175781 279.390625 153.40625 279.386719 L 163.828125 279.191406 C 164.101562 279.1875 164.363281 279.132812 164.613281 279.023438 C 164.867188 278.914062 165.085938 278.761719 165.277344 278.5625 C 165.464844 278.367188 165.613281 278.140625 165.710938 277.886719 C 165.8125 277.632812 165.859375 277.367188 165.855469 277.09375 C 165.851562 276.820312 165.792969 276.558594 165.683594 276.308594 C 165.574219 276.058594 165.421875 275.835938 165.226562 275.648438 C 165.03125 275.457031 164.804688 275.3125 164.550781 275.210938 C 164.296875 275.109375 164.03125 275.0625 163.757812 275.066406 Z M 163.769531 275.042969 " fill-opacity="1" fill-rule="nonzero"/><path fill="#000000" d="M 180.449219 246.757812 C 180.410156 246.390625 180.300781 246.042969 180.132812 245.714844 C 179.960938 245.386719 179.734375 245.101562 179.457031 244.859375 C 179.179688 244.617188 178.867188 244.433594 178.519531 244.308594 C 178.171875 244.179688 177.8125 244.125 177.441406 244.132812 L 84.996094 246.371094 C 84.160156 246.394531 83.457031 246.714844 82.886719 247.332031 C 82.324219 247.953125 82.070312 248.683594 82.125 249.519531 L 85.917969 305.589844 C 85.941406 305.960938 86.035156 306.320312 86.195312 306.65625 C 86.355469 306.996094 86.570312 307.292969 86.84375 307.546875 C 87.121094 307.804688 87.429688 308 87.777344 308.136719 C 88.128906 308.273438 88.488281 308.339844 88.863281 308.339844 L 183.957031 308.339844 C 184.164062 308.34375 184.371094 308.320312 184.574219 308.28125 C 184.777344 308.238281 184.972656 308.175781 185.164062 308.089844 C 185.355469 308.007812 185.535156 307.902344 185.703125 307.78125 C 185.871094 307.660156 186.023438 307.519531 186.164062 307.367188 C 186.300781 307.210938 186.425781 307.042969 186.527344 306.863281 C 186.632812 306.683594 186.714844 306.496094 186.777344 306.296875 C 186.84375 306.101562 186.886719 305.898438 186.90625 305.691406 C 186.925781 305.484375 186.925781 305.277344 186.902344 305.070312 Z M 91.609375 302.449219 L 88.214844 252.191406 L 174.886719 250.0625 L 180.667969 302.449219 Z M 91.609375 302.449219 " fill-opacity="1" fill-rule="nonzero"/><path fill="#000000" d="M 170.375 157.238281 C 170.859375 157.234375 171.34375 157.195312 171.820312 157.117188 C 179.074219 155.96875 183.394531 146.511719 181.664062 135.554688 C 180.875 130.597656 178.933594 126.085938 176.207031 122.84375 C 173.121094 119.183594 169.367188 117.5 165.625 118.09375 C 161.882812 118.6875 158.84375 121.453125 157.042969 125.878906 C 155.445312 129.808594 155 134.71875 155.789062 139.65625 C 157.410156 149.871094 163.652344 157.238281 170.375 157.238281 Z M 162.503906 128.101562 C 163.480469 125.691406 164.953125 124.164062 166.550781 123.910156 C 166.71875 123.886719 166.882812 123.875 167.050781 123.875 C 168.53125 123.875 170.195312 124.859375 171.695312 126.640625 C 173.71875 129.039062 175.234375 132.621094 175.824219 136.480469 C 177.101562 144.546875 174.242188 150.765625 170.878906 151.300781 C 167.511719 151.839844 162.875 146.804688 161.589844 138.738281 C 161 134.878906 161.324219 131 162.503906 128.101562 Z M 162.503906 128.101562 " fill-opacity="1" fill-rule="nonzero"/><path fill="#000000" d="M 175.824219 319.492188 L 156.105469 319.492188 C 155.550781 319.503906 155 319.574219 154.453125 319.695312 C 153.910156 319.816406 153.382812 319.988281 152.871094 320.210938 C 152.363281 320.433594 151.878906 320.707031 151.417969 321.023438 C 150.960938 321.339844 150.535156 321.699219 150.148438 322.097656 C 149.757812 322.496094 149.410156 322.929688 149.105469 323.394531 C 148.800781 323.863281 148.542969 324.355469 148.335938 324.871094 C 148.125 325.386719 147.964844 325.917969 147.859375 326.464844 C 147.75 327.011719 147.699219 327.5625 147.699219 328.121094 C 147.699219 328.679688 147.75 329.230469 147.859375 329.777344 C 147.964844 330.324219 148.125 330.855469 148.335938 331.375 C 148.542969 331.890625 148.800781 332.382812 149.105469 332.847656 C 149.410156 333.3125 149.757812 333.746094 150.148438 334.144531 C 150.535156 334.546875 150.960938 334.902344 151.417969 335.222656 C 151.878906 335.539062 152.363281 335.808594 152.871094 336.03125 C 153.382812 336.253906 153.910156 336.425781 154.453125 336.550781 C 155 336.671875 155.550781 336.738281 156.105469 336.753906 L 175.824219 336.753906 C 176.398438 336.769531 176.96875 336.726562 177.539062 336.625 C 178.105469 336.527344 178.660156 336.371094 179.195312 336.160156 C 179.730469 335.953125 180.242188 335.691406 180.726562 335.378906 C 181.210938 335.066406 181.660156 334.707031 182.074219 334.304688 C 182.484375 333.902344 182.855469 333.464844 183.179688 332.988281 C 183.503906 332.511719 183.78125 332.007812 184.003906 331.476562 C 184.226562 330.945312 184.398438 330.398438 184.511719 329.832031 C 184.625 329.269531 184.683594 328.699219 184.683594 328.121094 C 184.683594 327.546875 184.625 326.976562 184.511719 326.410156 C 184.398438 325.84375 184.226562 325.296875 184.003906 324.765625 C 183.78125 324.234375 183.503906 323.730469 183.179688 323.253906 C 182.855469 322.777344 182.484375 322.339844 182.074219 321.9375 C 181.660156 321.535156 181.210938 321.179688 180.726562 320.867188 C 180.242188 320.554688 179.730469 320.292969 179.195312 320.082031 C 178.660156 319.871094 178.105469 319.71875 177.539062 319.617188 C 176.96875 319.519531 176.398438 319.476562 175.824219 319.492188 Z M 175.824219 330.859375 L 156.105469 330.859375 C 155.753906 330.84375 155.417969 330.761719 155.097656 330.617188 C 154.777344 330.46875 154.496094 330.269531 154.25 330.015625 C 154.007812 329.757812 153.820312 329.46875 153.691406 329.140625 C 153.558594 328.8125 153.492188 328.472656 153.492188 328.121094 C 153.492188 327.769531 153.558594 327.429688 153.691406 327.101562 C 153.820312 326.773438 154.007812 326.484375 154.25 326.230469 C 154.496094 325.976562 154.777344 325.773438 155.097656 325.628906 C 155.417969 325.480469 155.753906 325.402344 156.105469 325.382812 L 175.824219 325.382812 C 176.195312 325.367188 176.558594 325.425781 176.910156 325.554688 C 177.261719 325.6875 177.570312 325.882812 177.84375 326.140625 C 178.113281 326.398438 178.320312 326.699219 178.46875 327.042969 C 178.617188 327.386719 178.691406 327.746094 178.691406 328.121094 C 178.691406 328.496094 178.617188 328.855469 178.46875 329.199219 C 178.320312 329.542969 178.113281 329.84375 177.84375 330.105469 C 177.570312 330.363281 177.261719 330.558594 176.910156 330.6875 C 176.558594 330.820312 176.195312 330.875 175.824219 330.859375 Z M 175.824219 330.859375 " fill-opacity="1" fill-rule="nonzero"/></g></g></svg>